<svg xmlns="http://www.w3.org/2000/svg" width="1024" height="768" viewBox="0 0 1024 768">
<g fill="#9bbada">
<circle cx="38" cy="47" r="0.8" opacity="0.24"/>
<circle cx="181" cy="19" r="0.45" opacity="0.12"/>
<circle cx="375" cy="71" r="0.45" opacity="0.12"/>
<circle cx="591" cy="32" r="0.45" opacity="0.24"/>
<circle cx="811" cy="82" r="0.8" opacity="0.12"/>
<circle cx="968" cy="29" r="0.45" opacity="0.12"/>
<circle cx="85" cy="192" r="0.45" opacity="0.24"/>
<circle cx="249" cy="137" r="0.45" opacity="0.12"/>
<circle cx="468" cy="203" r="0.8" opacity="0.12"/>
<circle cx="685" cy="148" r="0.45" opacity="0.24"/>
<circle cx="906" cy="228" r="0.45" opacity="0.12"/>
<circle cx="18" cy="341" r="0.45" opacity="0.12"/>
<circle cx="165" cy="304" r="0.8" opacity="0.24"/>
<circle cx="343" cy="372" r="0.45" opacity="0.12"/>
<circle cx="556" cy="289" r="0.45" opacity="0.12"/>
<circle cx="748" cy="349" r="0.45" opacity="0.24"/>
<circle cx="983" cy="312" r="0.8" opacity="0.12"/>
<circle cx="71" cy="505" r="0.45" opacity="0.12"/>
<circle cx="229" cy="446" r="0.45" opacity="0.24"/>
<circle cx="421" cy="529" r="0.45" opacity="0.12"/>
<circle cx="624" cy="470" r="0.8" opacity="0.12"/>
<circle cx="831" cy="508" r="0.45" opacity="0.24"/>
<circle cx="955" cy="437" r="0.45" opacity="0.12"/>
<circle cx="26" cy="663" r="0.45" opacity="0.12"/>
<circle cx="174" cy="589" r="0.8" opacity="0.24"/>
<circle cx="347" cy="695" r="0.45" opacity="0.12"/>
<circle cx="547" cy="617" r="0.45" opacity="0.12"/>
<circle cx="729" cy="686" r="0.45" opacity="0.24"/>
<circle cx="927" cy="640" r="0.8" opacity="0.12"/>
<circle cx="481" cy="757" r="0.45" opacity="0.12"/>
<circle cx="849" cy="747" r="0.45" opacity="0.24"/>
<circle cx="991" cy="578" r="0.45" opacity="0.12"/>
</g>
</svg>
